<svg viewBox="0 0 120 120" fill="none" xmlns="http://www.w3.org/2000/svg">
  <path d="M 60 100 C 20 70, 5 45, 5 25 C 5 5, 30 5, 45 15 C 60 25, 60 25, 60 25 C 60 25, 60 25, 75 15 C 90 5, 115 5, 115 25 C 115 45, 100 70, 60 100 Z" fill="#ef4444" fill-opacity="0.2" />
  <g transform="translate(10, 10)">
    <path d="M 28 20 L 52 20 A 8 8 0 0 1 60 28 L 60 42 A 8 8 0 0 1 52 50 L 26 50 L 12 60 L 20 42 L 20 28 A 8 8 0 0 1 28 20 Z" fill="#7c3aed" stroke="#ffffff" stroke-width="3.5" stroke-linejoin="round" />
    <path d="M 53 35 L 77 35 A 8 8 0 0 1 85 43 L 85 57 L 93 75 L 79 65 L 53 65 A 8 8 0 0 1 45 57 L 45 43 A 8 8 0 0 1 53 35 Z" fill="#f59e0b" stroke="#ffffff" stroke-width="3.5" stroke-linejoin="round" />
    <circle cx="53" cy="50" r="2.5" fill="#ffffff" />
    <circle cx="61" cy="50" r="2.5" fill="#ffffff" />
    <circle cx="69" cy="50" r="2.5" fill="#ffffff" />
    <circle cx="77" cy="50" r="2.5" fill="#ffffff" />
  </g>
</svg>
